<?xml version="1.0" encoding="utf-8"?>
<!-- Generator: Adobe Illustrator 17.0.0, SVG Export Plug-In . SVG Version: 6.00 Build 0)  -->
<!DOCTYPE svg PUBLIC "-//W3C//DTD SVG 1.1//EN" "http://www.w3.org/Graphics/SVG/1.1/DTD/svg11.dtd">
<svg version="1.1" xmlns="http://www.w3.org/2000/svg" xmlns:xlink="http://www.w3.org/1999/xlink" x="0px" y="0px" width="230px"
	 height="230px" viewBox="0 0 230 230" enable-background="new 0 0 230 230" xml:space="preserve">
<g id="Layer_2" display="none">
	<rect x="0" y="0" display="inline" width="230" height="230"/>
</g>
<g id="Layer_1">
	<g>
		<path fill="#424242" d="M155.325,49.97c16.606,0.832,32.687,3.899,47.733,11.305c3.749,1.846,7.246,4.112,10.311,6.962
			c4.33,4.026,6.673,8.791,6.649,14.969c-0.139,36.301-0.219,72.603,0.047,108.903c0.06,8.197-3.112,14.059-9.425,18.671
			c-10.187,7.443-21.895,11.174-34.088,13.384c-27.607,5.003-54.989,4.523-81.879-4.336c-7.318-2.411-14.206-5.735-20.067-10.857
			c-4.737-4.14-7.238-9.147-7.182-15.727c0.247-29.133,0.211-58.268,0.276-87.403c2.467-2.9,4.935-5.8,7.288-8.565
			c17.58,9.712,34.254,9.614,51.05,1.575c0.52,1.171,1.6,1.022,2.564,1.033c7.82,0.093,15.651,0.462,23.458,0.174
			c16.259-0.6,32.12-3.247,46.724-10.961c3.471-1.833,7.098-3.704,8.424-7.745c-0.66-2.723-2.595-4.1-4.478-5.436
			c-5.214-3.7-11.093-6.005-17.132-7.957c-10.199-3.296-20.772-4.502-31.358-5.637C155.314,58.268,155.241,54.112,155.325,49.97z
			 M178.241,187.713c-13.057,0-25.467,0-38.212,0c4.155-20.087,8.218-39.732,12.318-59.556c-4.918,0-9.486,0-14.262,0
			c-4.884,23.586-9.72,46.944-14.642,70.71c8.956,0,17.43,0,25.903,0c8.618,0,17.236,0,26.058,0
			C176.346,195.168,177.196,191.824,178.241,187.713z"/>
		<path fill="#587EE5" d="M155.325,49.97c-0.084,4.142-0.011,8.298-1.083,12.353c-2.433,9.065-6.158,17.422-12.539,24.519
			c-4.504,5.009-10.461,7.987-15.664,12.008c-16.796,8.039-33.469,8.137-51.05-1.575c-2.353,2.765-4.821,5.664-7.288,8.565
			c-1.931,0.46-2.966,2.083-4.242,3.353c-11.086,11.045-22.139,22.125-33.212,33.182c-1.275,1.273-2.618,2.477-3.662,3.46
			c-5.677-5.779-11.105-11.305-16.652-16.953c15.732-15.668,32.064-31.934,48.342-48.146c-1.472-3.699-2.65-6.418-3.648-9.201
			C44.469,43.184,60.893,11.92,89.896,4.355c29.318-7.647,58.704,11.15,63.971,40.963C154.156,46.957,154.228,48.609,155.325,49.97z
			 M63.188,52.92c0.005,22.107,17.218,39.683,38.914,39.734c22.232,0.052,40.158-17.797,40.075-39.904
			c-0.083-22.094-17.544-39.184-39.996-39.148C79.905,13.638,63.183,30.499,63.188,52.92z"/>
		<path fill="#FDFEFE" d="M126.039,98.851c5.203-4.022,11.16-6.999,15.664-12.008c6.381-7.097,10.106-15.454,12.539-24.519
			c10.586,1.135,21.159,2.34,31.358,5.636c6.038,1.952,11.918,4.256,17.132,7.957c1.883,1.336,3.818,2.713,4.478,5.436
			c-1.327,4.042-4.954,5.912-8.424,7.745c-14.603,7.713-30.465,10.361-46.724,10.961c-7.807,0.288-15.638-0.082-23.458-0.174
			C127.639,99.873,126.559,100.022,126.039,98.851z"/>
		<path fill="#FDFEFE" d="M178.241,187.713c-1.045,4.111-1.895,7.455-2.836,11.154c-8.822,0-17.44,0-26.058,0
			c-8.474,0-16.947,0-25.903,0c4.921-23.766,9.758-47.124,14.642-70.71c4.776,0,9.344,0,14.262,0
			c-4.1,19.824-8.164,39.469-12.318,59.556C152.774,187.713,165.184,187.713,178.241,187.713z"/>
		<path fill="#FDFEFE" d="M63.188,52.92c-0.005-22.421,16.716-39.282,38.993-39.318c22.452-0.036,39.913,17.054,39.996,39.148
			c0.083,22.107-17.843,39.956-40.075,39.904C80.407,92.603,63.194,75.027,63.188,52.92z"/>
	</g>
</g>
</svg>
